<?xml version="1.0" encoding="UTF-8" standalone="no"?>
<!-- Created with Inkscape (http://www.inkscape.org/) -->

<svg
   width="503.68182mm"
   height="147.62712mm"
   viewBox="0 0 503.68182 147.62712"
   version="1.1"
   id="svg150"
   inkscape:version="1.1 (c4e8f9e, 2021-05-24)"
   sodipodi:docname="tps-logo.svg"
   xmlns:inkscape="http://www.inkscape.org/namespaces/inkscape"
   xmlns:sodipodi="http://sodipodi.sourceforge.net/DTD/sodipodi-0.dtd"
   xmlns="http://www.w3.org/2000/svg"
   xmlns:svg="http://www.w3.org/2000/svg">
  <sodipodi:namedview
     id="namedview152"
     pagecolor="#ffffff"
     bordercolor="#666666"
     borderopacity="1.0"
     inkscape:pageshadow="2"
     inkscape:pageopacity="0.0"
     inkscape:pagecheckerboard="0"
     inkscape:document-units="mm"
     showgrid="false"
     inkscape:zoom="0.44453563"
     inkscape:cx="1039.2868"
     inkscape:cy="325.05831"
     inkscape:window-width="1366"
     inkscape:window-height="740"
     inkscape:window-x="0"
     inkscape:window-y="0"
     inkscape:window-maximized="1"
     inkscape:current-layer="layer1" />
  <defs
     id="defs147" />
  <g
     inkscape:label="Layer 1"
     inkscape:groupmode="layer"
     id="layer1"
     transform="translate(31.674831,-92.080521)">
    <path
       style="fill:#000000;stroke-width:0.264583"
       d="m 87.842329,239.35265 c 0,-0.19527 0.506016,-0.5052 1.124479,-0.68879 0.618464,-0.18357 1.273307,-0.45514 1.455208,-0.60344 0.256292,-0.20897 0.330729,-3.14399 0.330729,-13.04025 0,-14.21683 0.07721,-13.61369 -1.802077,-14.07642 -1.070419,-0.26358 -1.200194,-0.6283 -0.314589,-0.88416 3.986919,-1.15178 4.8373,-1.33924 5.061003,-1.11553 0.137432,0.13742 0.315235,0.71585 0.395118,1.28537 0.251058,1.78991 0.289621,1.81771 1.295982,0.93411 1.745014,-1.53215 2.404956,-1.75069 5.286438,-1.75069 2.35766,0 2.80895,0.0801 4.14352,0.73549 1.79614,0.88204 3.21003,2.37659 4.15509,4.39213 0.61456,1.31067 0.69722,1.81631 0.69722,4.26508 0,2.44878 -0.0827,2.95442 -0.69722,4.26509 -0.96314,2.05409 -2.37494,3.52351 -4.29224,4.46738 -3.08411,1.51831 -6.9339,1.27757 -9.032273,-0.56483 l -0.927222,-0.81412 v 5.69706 c 0,6.36254 -0.02016,6.28904 1.86399,6.79637 0.612968,0.16505 1.046427,0.44196 1.046427,0.66845 0,0.32525 -0.777629,0.38669 -4.894792,0.38669 -3.917889,0 -4.894791,-0.0709 -4.894791,-0.35499 z m 13.700681,-12.49133 c 2.57538,-1.07582 4.01625,-3.88511 4.02326,-7.84431 0.006,-3.40426 -0.82409,-5.83912 -2.48915,-7.30107 -1.62834,-1.42968 -4.64777,-1.51892 -6.391538,-0.18889 -1.766186,1.34713 -2.096894,2.53908 -2.092857,7.54309 0.004,4.94839 0.220311,5.78747 1.803284,6.99487 1.610518,1.2284 3.436368,1.51087 5.147001,0.79631 z m 142.74008,11.95372 c -2.56482,-0.65252 -4.7575,-1.94935 -6.87303,-4.06485 -3.55102,-3.55105 -4.46733,-6.68626 -4.23463,-14.48943 0.14327,-4.80462 0.56391,-7.47143 2.05216,-13.01059 4.07676,-15.17317 15.51631,-39.51965 25.06531,-53.3458 2.41514,-3.49689 2.40138,-4.89741 -0.0617,-6.2875 -1.67256,-0.94393 -2.34024,-1.63031 -2.21557,-2.27763 0.16997,-0.8826 1.43412,-1.19726 5.40742,-1.34599 3.27057,-0.12243 3.8068,-0.20274 3.8068,-0.57019 0,-0.23523 0.42659,-1.06115 0.94798,-1.83537 0.52141,-0.77423 0.90836,-1.44419 0.85989,-1.4888 -0.0484,-0.0446 -1.57636,0.5069 -3.39537,1.22561 -13.69528,5.41111 -29.62389,9.39715 -43.12708,10.7923 -4.89913,0.50618 -13.4124,0.87393 -17.09291,0.73837 l -3.73145,-0.13744 -2.60567,4.40277 c -3.9374,6.65298 -13.50697,23.47901 -15.04597,26.4551 -0.28649,0.55401 0.63176,-0.21514 2.67026,-2.23668 8.91276,-8.83867 17.73116,-15.64537 22.6356,-17.47185 3.48694,-1.29858 4.48215,-1.39855 5.34388,-0.53682 0.37538,0.37538 0.68251,0.87619 0.68251,1.11291 0,0.23672 -0.70295,1.403 -1.56211,2.59172 -3.76137,5.20417 -8.32978,13.74891 -9.15825,17.12957 -0.62154,2.53625 -0.39859,3.5986 0.8661,4.12703 0.86289,0.36055 1.13433,0.35954 2.63112,-0.01 1.84869,-0.4562 4.41113,-1.66997 7.06797,-3.34793 1.67089,-1.05524 1.80881,-1.22484 3.19005,-3.92232 1.65412,-3.2304 4.09122,-6.96354 6.99166,-10.70978 1.1066,-1.4293 2.16167,-2.8077 2.34461,-3.06308 0.29249,-0.40833 0.17621,-0.56568 -0.96417,-1.3046 -1.4255,-0.92371 -1.74562,-1.42776 -1.36197,-2.14461 0.30409,-0.56816 1.54908,-0.80399 4.26522,-0.80793 1.87732,-0.003 2.08261,-0.0613 3.175,-0.9057 2.19239,-1.69471 3.69178,-1.74058 6.42752,-0.19662 1.37218,0.77441 1.38329,0.77586 7.31774,0.95779 3.2689,0.10022 6.17408,0.2477 6.45594,0.32774 0.49993,0.14195 0.50033,0.15442 0.0156,0.50886 -0.27329,0.19984 -0.99216,0.36335 -1.59748,0.36335 -1.12643,0 -2.76137,0.44406 -2.77418,0.75349 -0.004,0.0949 -0.0377,1.02311 -0.0751,2.06271 -0.12517,3.4802 -2.701,7.65553 -7.68326,12.45431 -6.03528,5.81302 -12.39301,10.05379 -17.7873,11.8646 -3.61101,1.21216 -5.84036,0.77023 -6.85025,-1.35795 -0.40083,-0.84465 -0.40833,-1.11916 -0.0759,-2.77397 0.20293,-1.01007 0.32583,-1.83652 0.27308,-1.83652 -0.0527,0 -0.71588,0.45537 -1.47365,1.01197 -3.15155,2.31482 -7.01963,4.21971 -9.35755,4.6083 -1.46272,0.2431 -1.75253,0.21146 -2.82745,-0.30892 -1.3762,-0.6662 -2.98928,-2.33072 -3.24463,-3.34809 -0.099,-0.39439 0.0207,-1.40034 0.2763,-2.32177 1.03552,-3.73341 3.33445,-8.04527 7.29803,-13.68822 1.67058,-2.3784 2.10552,-3.18731 2.05004,-3.81265 -0.061,-0.68725 -0.18757,-0.80499 -0.94361,-0.87765 -1.56369,-0.15025 -5.92117,2.744 -11.29765,7.50393 -2.78875,2.46896 -10.49872,10.10645 -14.63523,14.49763 -2.0324,2.15752 -2.51817,2.54823 -2.83812,2.28272 -0.21231,-0.17621 -0.38602,-0.64823 -0.38602,-1.04894 0,-1.58488 6.5615,-14.26117 15.64241,-30.21989 1.71535,-3.01452 3.31897,-5.78644 3.56362,-6.15981 0.24465,-0.37338 0.39892,-0.71104 0.34283,-0.75035 -0.0561,-0.0393 -0.81636,-0.21051 -1.68949,-0.38045 -1.33847,-0.26052 -1.74203,-0.48037 -2.57258,-1.4015 -1.02052,-1.13183 -1.44091,-2.41575 -1.15889,-3.53941 0.21506,-0.85687 2.17421,-2.67974 4.2128,-3.91975 1.8557,-1.12877 4.74775,-2.30336 7.42572,-3.01589 1.81996,-0.48425 1.82285,-0.48651 3.15726,-2.47037 9.81875,-14.59744 21.07733,-26.82915 31.72876,-34.4712 6.98638,-5.012499 15.52808,-8.965889 22.72626,-10.518469 3.53864,-0.76326 9.38874,-0.95519 12.85989,-0.42191 7.02437,1.07917 13.09737,4.40626 16.93447,9.277559 2.29814,2.91759 3.50893,5.87727 3.91924,9.58033 l 0.18016,1.62574 1.57996,-0.14326 c 1.52844,-0.13859 1.57707,-0.1236 1.49034,0.45975 -0.0698,0.46943 -0.43815,0.72715 -1.66285,1.16335 l -1.57324,0.56034 -0.32314,1.75797 c -1.35741,7.38417 -7.81862,14.31091 -17.96166,19.25577 l -3.43958,1.67683 -1.78594,2.39014 c -1.48738,1.99057 -2.11259,3.33076 -1.71979,3.68649 0.0364,0.0329 5.94987,0.12224 13.14109,0.19843 8.98511,0.0952 13.1046,0.22763 13.16976,0.42336 0.0522,0.15664 -0.18203,0.58355 -0.52043,0.94867 -0.57322,0.61852 -0.84024,0.67543 -3.90935,0.83306 -18.62908,0.95679 -23.43878,1.29751 -24.32847,1.72345 -0.73723,0.35294 -1.6429,1.52221 -4.44206,5.735 -10.56232,15.89648 -18.15531,31.01348 -23.52244,46.83125 -2.86776,8.45179 -4.05217,14.73446 -4.04662,21.46519 0.006,6.86046 1.14666,10.8231 3.82797,13.29463 1.79144,1.65129 3.26049,2.22371 6.06848,2.36466 6.21665,0.31205 12.21743,-2.04031 21.04372,-8.24926 1.93215,-1.35919 7.90313,-7.2049 11.34306,-11.10507 5.3635,-6.0811 8.63108,-11.75919 9.75952,-16.95926 0.36423,-1.67838 0.38066,-2.25539 0.10774,-3.78253 -0.40013,-2.23912 -1.2079,-3.69949 -2.41228,-4.36129 -1.23823,-0.68038 -4.0344,-0.53345 -5.42134,0.28488 -1.21333,0.71588 -2.25158,0.75165 -2.25158,0.0776 0,-0.62966 0.56356,-1.11223 2.48465,-2.12762 1.79877,-0.95076 3.61931,-1.09093 5.09201,-0.39209 2.3408,1.11078 5.72061,6.45512 5.68643,8.99166 -0.0662,4.91196 -4.58645,12.94473 -11.36865,20.20284 -8.20369,8.77935 -18.44193,15.97043 -25.83923,18.14885 -2.89362,0.85214 -8.09747,1.1253 -10.37903,0.54483 z m -20.59212,-48.81859 c 5.85353,-2.06817 15.87426,-10.72361 19.69365,-17.01046 1.1707,-1.92698 2.14937,-4.53136 2.14937,-5.71971 0,-1.7363 -2.19948,-2.56814 -6.28169,-2.37578 -3.93017,0.18521 -5.20255,0.77527 -8.09101,3.75215 -4.49381,4.6314 -8.08455,9.75698 -10.90467,15.56583 -1.99683,4.11308 -2.2847,5.24005 -1.54728,6.05787 0.42529,0.47168 0.71263,0.53335 1.95382,0.41937 0.80036,-0.0735 2.16288,-0.38365 3.02781,-0.68927 z m -1.83719,-39.30126 c 16.67912,-1.86517 32.81045,-6.55093 46.92822,-13.63151 l 4.13636,-2.07453 1.87378,-2.34336 c 4.5162,-5.64801 13.70539,-16.14979 14.60717,-16.69366 0.53986,-0.32559 1.77522,-0.90602 2.74529,-1.28986 1.99628,-0.78991 2.06362,-0.90693 2.0691,-3.59525 0.0127,-6.22036 -3.65144,-11.155389 -11.03406,-14.861249 -6.92792,-3.47761 -15.66118,-4.01524 -23.49044,-1.44608 -5.32736,1.74816 -13.98977,6.591759 -19.71146,11.021699 -12.1163,9.38089 -23.68434,23.00126 -34.64617,40.79292 -2.59489,4.21164 -2.66824,4.37233 -2.07961,4.55581 1.03514,0.32266 14.68006,0.004 18.60182,-0.43493 z m -19.00595,-4.72777 c 1.64926,-2.58936 2.99866,-4.75583 2.99866,-4.81439 0,-0.19162 -2.75728,0.83699 -4.23928,1.58147 -2.00365,1.00653 -4.46286,2.78913 -5.62994,4.08095 -2.11776,2.3441 -0.93995,4.04542 2.70337,3.90495 l 1.16853,-0.0451 z m 80.0395,-17.26206 c 2.73291,-2.04482 6.05258,-5.24893 7.52851,-7.26647 1.53768,-2.10194 2.58135,-3.96875 2.21885,-3.96875 -0.44879,0 -8.02603,7.64007 -10.4307,10.51719 -1.12503,1.34607 -1.94812,2.44482 -1.82911,2.44168 0.11903,-0.003 1.24962,-0.77879 2.51245,-1.72365 z m 84.03262,110.0792 c -3.86652,-0.98076 -7.91046,-4.20616 -9.62626,-7.67781 -2.69869,-5.46047 -2.15593,-15.332 1.49104,-27.11786 4.59343,-14.84461 14.46265,-35.54775 23.29859,-48.87453 2.74133,-4.13462 3.09394,-5.22864 2.09368,-6.49619 -0.31867,-0.40385 -1.01328,-0.91555 -1.54353,-1.13711 -1.81282,-0.75744 -2.65917,-2.01684 -1.82218,-2.71147 0.54319,-0.45081 3.53504,-0.83695 6.50152,-0.83912 2.30053,-0.002 2.71635,-0.0643 2.59117,-0.39055 -0.29358,-0.76507 4.30813,-7.12863 10.43345,-14.42811 9.64755,-11.49693 10.8241,-12.76637 12.6778,-13.67888 2.4969,-1.22915 6.89121,-2.72529 8.00439,-2.72529 1.76659,0 1.55241,0.99182 -0.33639,1.55772 -4.48175,1.34277 -11.56023,8.02346 -20.21584,19.07978 -6.00255,7.66744 -7.49816,9.89599 -6.96518,10.37865 0.0364,0.0329 5.94987,0.12225 13.14109,0.19844 9.44266,0.10005 13.10282,0.22233 13.17535,0.44016 0.0552,0.16589 -0.17301,0.60188 -0.50721,0.96886 -0.59825,0.65692 -0.70189,0.67195 -6.69308,0.97129 -13.3199,0.6655 -21.17186,1.22987 -21.78728,1.566 -0.71117,0.38843 -6.3279,8.81522 -10.42397,15.6391 -9.8929,16.48119 -18.11697,36.25929 -20.62837,49.60937 -0.78857,4.19193 -0.86453,12.95604 -0.13714,15.82521 0.69049,2.72354 1.7162,4.65561 3.28912,6.19551 2.00898,1.96683 4.07151,2.58175 7.98293,2.38008 7.06196,-0.36412 15.15202,-4.44815 23.14252,-11.68283 l 2.02573,-1.83412 -0.004,-5.8388 c -0.003,-3.21133 -0.10017,-5.99022 -0.21762,-6.17529 -0.11748,-0.18511 -0.73136,-0.42492 -1.36422,-0.53295 -1.67756,-0.28639 -1.61552,-0.75243 0.14894,-1.11872 0.82666,-0.1716 2.16931,-0.54125 2.98368,-0.82145 0.81436,-0.28016 1.63292,-0.45098 1.81903,-0.37957 0.2649,0.10165 0.3384,1.94165 0.3384,8.47254 0,7.91012 0.0267,8.36935 0.51441,8.85709 0.28292,0.28292 0.93776,0.59383 1.45521,0.6909 0.54165,0.10163 0.9408,0.3324 0.9408,0.54393 0,0.29753 -0.77121,0.36743 -4.05384,0.36743 h -4.05381 l -1.83317,1.47595 c -4.9245,3.96499 -11.65886,7.72462 -15.85605,8.85209 -2.75786,0.7408 -7.81807,0.93884 -9.97966,0.39055 z M 225.44523,228.27938 c -0.67188,-0.35015 -1.35551,-0.96364 -1.60379,-1.43922 l -0.43273,-0.82894 -1.01933,0.76004 c -1.7938,1.33747 -3.68126,1.88145 -6.17834,1.78056 -2.16168,-0.0873 -2.22019,-0.10757 -3.10885,-1.07727 -0.80429,-0.87765 -0.9057,-1.15316 -0.9057,-2.46055 0,-3.06909 1.51196,-4.39872 7.9375,-6.98034 l 3.30729,-1.32879 0.0782,-2.04089 c 0.13324,-3.47962 -0.73602,-4.44789 -3.98126,-4.43484 -2.04603,0.008 -3.08727,0.5661 -3.46517,1.85655 -0.45301,1.54705 -0.8411,2.08854 -1.55668,2.17213 -1.1979,0.13986 -1.79067,-0.36317 -1.79067,-1.51958 0,-2.25584 3.13212,-3.59831 7.97356,-3.41755 3.53023,0.13182 5.07976,0.80402 5.98321,2.59562 0.56771,1.12583 0.59531,1.47296 0.59531,7.49186 0,3.58137 0.11126,6.51925 0.25723,6.79199 0.39216,0.73273 0.98279,0.83843 1.99308,0.35668 1.02666,-0.48958 1.31913,-0.37515 1.06749,0.41772 -0.22649,0.71359 -1.6392,1.55941 -2.93315,1.7561 -0.79774,0.12126 -1.32416,0.014 -2.21715,-0.45128 z m -4.34263,-1.82152 c 0.62466,-0.30239 1.43613,-0.90683 1.80335,-1.34321 0.63537,-0.75512 0.66762,-0.95221 0.66762,-4.08043 0,-1.80785 -0.0574,-3.287 -0.1275,-3.287 -0.64799,0 -4.84815,2.30225 -5.79879,3.17852 -3.55276,3.2748 -0.84315,7.61299 3.45532,5.53212 z m 76.42201,2.04933 c -0.58208,-0.19185 -1.33421,-0.49715 -1.6714,-0.67842 -0.50654,-0.27233 -0.72324,-0.25736 -1.24746,0.0861 -0.3489,0.22862 -0.75766,0.41568 -0.90828,0.41568 -0.35865,0 -0.37031,-5.73002 -0.0122,-5.9514 0.14398,-0.089 0.56716,0.52909 0.9404,1.37345 1.19518,2.70378 2.61806,3.7842 4.98354,3.7842 1.28235,0 1.55847,-0.10276 2.3944,-0.89114 0.79793,-0.75253 0.94488,-1.06754 0.94488,-2.02533 0,-0.97287 -0.14579,-1.27289 -1.02479,-2.10907 -0.56364,-0.53618 -2.00125,-1.53808 -3.19468,-2.22645 -3.80537,-2.19493 -5.04719,-3.68331 -5.03513,-6.03482 0.008,-1.67 0.81738,-3.21882 2.13691,-4.09205 1.16215,-0.76906 1.88203,-0.83132 6.52237,-0.56407 0.54571,0.0314 1.20055,-0.0389 1.45521,-0.15639 0.42466,-0.19585 0.46302,0.01 0.46302,2.48264 0,3.02887 -0.22934,3.2699 -1.24727,1.31106 -0.33509,-0.64487 -1.02325,-1.55945 -1.52921,-2.0324 -0.80955,-0.75673 -1.09641,-0.85989 -2.39104,-0.85989 -1.8446,0 -2.76998,0.75411 -2.76998,2.25729 0,1.3103 0.80039,2.04602 4.41783,4.0608 1.62944,0.90755 3.31616,2.05272 3.74825,2.54487 1.5277,1.73995 1.6297,5.21766 0.2146,7.31742 -1.19018,1.76599 -4.8192,2.76937 -7.19005,1.98792 z m 51.4549,-0.32615 c -0.1419,-0.37328 -0.25964,-0.93882 -0.26165,-1.25677 -0.003,-0.31795 -0.0713,-0.83048 -0.15412,-1.13895 -0.13832,-0.51533 -0.25207,-0.45935 -1.40089,0.6895 -1.68127,1.68124 -3.31174,2.22268 -6.23184,2.06941 -2.52539,-0.13255 -3.72591,-0.71459 -4.69775,-2.27753 -0.58238,-0.93657 -0.61437,-1.26696 -0.74094,-7.65022 -0.14671,-7.39796 -0.0906,-7.1765 -1.98499,-7.83235 -0.58174,-0.2014 -1.05772,-0.53282 -1.05772,-0.73644 0,-0.52716 6.17601,-0.46458 6.51219,0.066 0.12462,0.19664 0.2286,3.51269 0.23103,7.36899 0.005,7.89786 0.11634,8.45722 1.85574,9.32614 2.57217,1.28495 5.70457,-0.23191 6.86437,-3.3241 0.1633,-0.43537 0.27938,-3.03273 0.27938,-6.25146 0,-6.1114 0.0386,-5.97345 -1.8233,-6.50592 -0.53909,-0.15418 -0.95483,-0.4422 -0.95483,-0.66146 0,-0.32168 0.53682,-0.38195 3.12433,-0.35089 1.71839,0.0206 3.17048,0.0837 3.22686,0.14007 0.0564,0.0564 0.13872,3.4976 0.18296,7.64714 0.092,8.62942 0.12343,8.76748 2.06682,9.07823 0.61857,0.0989 1.05392,0.30215 0.99917,0.46643 -0.0534,0.1601 -0.92556,0.50372 -1.93818,0.76356 -1.01261,0.25985 -2.1763,0.60225 -2.58595,0.76089 -1.06244,0.41146 -1.2215,0.37037 -1.51069,-0.39023 z m -223.76383,0.0393 c -1.58751,-0.51223 -3.63092,-1.88534 -4.5698,-3.07078 -1.51599,-1.9141 -1.96599,-3.30187 -1.97313,-6.08494 -0.006,-2.31989 0.0623,-2.6588 0.86315,-4.28556 0.99988,-2.03102 2.56058,-3.54248 4.78687,-4.63579 1.34009,-0.6581 1.76505,-0.73038 4.2944,-0.73038 2.70359,0 2.87439,0.0349 4.63021,0.94652 3.39997,1.76519 5.61481,5.55138 5.32916,9.10997 -0.26647,3.3196 -2.68806,6.89181 -5.65769,8.34594 -1.05138,0.51482 -1.77403,0.64325 -3.93382,0.69911 -1.69737,0.0439 -3.04858,-0.0615 -3.76935,-0.29409 z m 5.52003,-0.9866 c 1.39299,-0.59923 2.49062,-1.88614 3.12652,-3.66565 0.18201,-0.50932 0.39294,-2.23572 0.46873,-3.83645 0.15527,-3.27912 -0.20115,-5.16089 -1.34824,-7.11825 -0.79189,-1.35125 -2.85204,-2.54267 -4.38036,-2.53322 -2.20481,0.0137 -4.34272,1.7898 -5.23764,4.35141 -0.5854,1.67566 -0.65088,7.37926 -0.10337,9.00422 1.23876,3.67652 4.22698,5.19494 7.47436,3.79794 z m 43.15238,0.85135 c -1.91939,-0.89892 -2.02179,-1.36877 -2.12331,-9.74252 l -0.0874,-7.20989 h -0.7592 c -1.34119,0 -1.21665,-0.54369 0.46456,-2.02819 0.88147,-0.77833 1.98413,-2.00962 2.45037,-2.73619 1.27848,-1.99234 1.5863,-1.7866 1.5863,1.06021 v 2.38125 h 2.36564 c 2.46431,0 3.16505,0.3003 2.25442,0.96618 -0.31065,0.22715 -1.23837,0.35674 -2.55396,0.35674 h -2.0661 l 0.002,6.68073 c 8e-4,3.78076 0.12015,7.10803 0.27487,7.66511 0.6187,2.22774 3.09722,2.41908 4.77567,0.36869 0.46778,-0.57142 1.29799,-0.43338 1.29799,0.21583 0,0.48103 -0.9119,1.37154 -1.98438,1.9378 -0.44614,0.23556 -1.66276,0.46212 -2.77812,0.51734 -1.57935,0.0782 -2.21593,-0.0103 -3.11882,-0.43309 z m 87.89769,0.009 c -1.96262,-0.89141 -2.08349,-1.43158 -2.18165,-9.75119 l -0.0851,-7.2099 -0.70866,-0.004 c -1.51717,-0.009 -1.45756,-0.38372 0.30718,-1.9331 0.93591,-0.82169 2.08492,-2.09121 2.55331,-2.82114 1.28249,-1.99859 1.5902,-1.79459 1.5902,1.05412 v 2.38125 h 2.51354 c 2.03105,0 2.51354,0.0744 2.51354,0.38757 0,0.64902 -0.92614,0.93535 -3.02532,0.93535 h -2.00176 v 6.88766 c 0,7.31623 0.14925,8.35922 1.28312,8.96604 1.0395,0.55634 2.10019,0.33533 3.2121,-0.66921 1.59657,-1.4424 2.66673,-0.71554 1.12342,0.76303 -1.54884,1.48389 -4.97922,1.97403 -7.09393,1.01357 z m 56.67864,0.22937 c -0.41582,-0.12462 -0.99782,-0.44181 -1.29331,-0.70488 -1.15541,-1.02862 -1.25796,-1.78954 -1.25796,-9.33334 V 211.133 l -0.7276,-0.004 c -1.64306,-0.009 -1.59533,-0.40624 0.25241,-2.09936 0.96419,-0.8835 2.09063,-2.14066 2.5032,-2.79371 1.14371,-1.81036 1.41158,-1.58401 1.41158,1.19295 v 2.38125 h 2.51354 c 2.28981,0 2.51354,0.0446 2.51354,0.50086 0,0.68551 -0.49173,0.82206 -2.96019,0.82206 h -2.12315 l 0.0943,7.12441 c 0.0893,6.74775 0.12366,7.16391 0.65045,7.87135 1.07817,1.44791 2.58066,1.47733 4.17025,0.0817 1.12554,-0.98825 1.55194,-1.0092 1.4427,-0.0709 -0.2059,1.76842 -4.36274,3.03106 -7.18974,2.18389 z m 50.54081,-0.35981 c -2.30579,-0.97152 -3.51377,-2.13101 -4.66473,-4.47754 -1.83004,-3.731 -1.02386,-8.59113 1.92908,-11.62947 2.85781,-2.94048 7.61399,-3.41723 11.04653,-1.10731 l 1.30329,0.87707 -0.004,-5.47222 c -0.003,-3.00972 -0.1012,-5.62536 -0.21997,-5.8125 -0.11875,-0.18717 -0.80153,-0.48482 -1.51731,-0.66146 -2.30584,-0.56906 -1.65388,-0.88006 3.06424,-1.46174 1.09141,-0.13457 2.07368,-0.19384 2.18282,-0.13174 0.10914,0.0621 0.20362,5.67206 0.20997,12.46656 0.006,6.79453 0.11422,12.88597 0.23974,13.53658 0.27054,1.40224 1.26563,2.38895 2.40932,2.38895 0.47665,0 0.77899,0.1383 0.77899,0.35632 0,0.40097 -5.33583,1.9278 -5.77927,1.65375 -0.146,-0.0902 -0.343,-0.54965 -0.43783,-1.02092 -0.38248,-1.90093 -0.35155,-1.87804 -1.35163,-0.99997 -1.66848,1.46495 -2.94153,1.94908 -5.39585,2.052 -1.92622,0.0808 -2.47058,0 -3.79334,-0.55636 z m 6.97627,-1.28638 c 2.35768,-1.19105 3.03155,-3.30668 2.85139,-8.95173 -0.10578,-3.31459 -0.17087,-3.69519 -0.8219,-4.8061 -0.88485,-1.50984 -2.40837,-2.31561 -4.3784,-2.31561 -1.82502,0 -2.91418,0.49014 -4.05765,1.82605 -1.381,1.61341 -1.93477,3.57759 -1.90948,6.77291 0.0314,3.96624 1.07083,6.39006 3.22908,7.52988 1.38338,0.73063 3.57839,0.70671 5.08696,-0.0554 z m 46.02956,1.66767 c -2.56743,-0.79595 -4.85857,-2.69169 -6.12701,-5.06968 -0.54678,-1.02508 -0.61986,-1.52072 -0.61986,-4.20476 0,-2.78474 0.0597,-3.1559 0.70466,-4.37769 0.99211,-1.87957 2.71182,-3.50512 4.7193,-4.46085 1.58541,-0.75477 1.93688,-0.81859 4.49791,-0.81666 2.38623,0.003 2.95654,0.0904 4.04284,0.62817 1.8697,0.92562 3.68543,2.69113 4.70887,4.5787 0.85071,1.56898 0.90558,1.82287 0.90558,4.1893 0,2.31119 -0.0715,2.66436 -0.86627,4.27877 -1.08468,2.20329 -3.18174,4.19107 -5.22996,4.95741 -1.52525,0.57068 -5.31479,0.73793 -6.73606,0.29729 z m 4.68958,-0.94292 c 1.64812,-0.48943 2.69883,-1.6061 3.52457,-3.74576 0.85341,-2.21134 0.87437,-7.21482 0.0392,-9.34826 -0.83291,-2.12767 -1.91863,-3.31425 -3.51872,-3.84572 -3.23922,-1.0759 -6.1639,0.8504 -7.1577,4.71427 -0.50477,1.96255 -0.43201,6.32208 0.1364,8.1743 0.56562,1.84306 2.0271,3.54801 3.47731,4.05654 1.36837,0.47985 1.86759,0.47908 3.49895,-0.005 z m -279.79724,0.35504 c 0.0567,-0.17007 0.57236,-0.47172 1.14592,-0.67029 1.75007,-0.60587 1.77777,-0.68091 1.91471,-5.18655 0.0682,-2.24266 0.0378,-5.22616 -0.0674,-6.62996 -0.22867,-3.05006 -0.5668,-3.62034 -2.28226,-3.84926 -0.79136,-0.1056 -1.16681,-0.28337 -1.16681,-0.55245 0,-0.28538 0.81682,-0.59656 2.91042,-1.10876 3.44448,-0.84273 3.54496,-0.79992 3.76285,1.60303 0.0809,0.89225 0.21986,1.61774 0.30879,1.61221 0.0889,-0.006 0.47561,-0.46437 0.85928,-1.0197 1.74957,-2.53225 6.54593,-3.27581 7.96346,-1.23455 0.38334,0.55203 0.20254,1.91765 -0.31602,2.38694 -0.73714,0.66712 -1.63869,0.35171 -2.40962,-0.84296 -0.54733,-0.84821 -0.80632,-1.01135 -1.71129,-1.07802 -1.29764,-0.0956 -2.6151,0.70038 -3.41606,2.06383 -0.49698,0.84598 -0.55063,1.43613 -0.62707,6.89753 -0.0924,6.60503 -0.1644,6.30816 1.684,6.94809 0.55861,0.19341 1.06203,0.4908 1.11873,0.66087 0.0762,0.2286 -1.18515,0.30927 -4.8358,0.30927 -3.65066,0 -4.912,-0.0807 -4.83581,-0.30927 z m 42.27434,-0.0328 c 0,-0.18809 0.53061,-0.48392 1.17913,-0.65736 0.68678,-0.1837 1.29987,-0.54099 1.46831,-0.85571 0.19309,-0.36081 0.26285,-2.68486 0.20993,-6.99477 -0.0788,-6.41656 -0.083,-6.45839 -0.72068,-7.13665 -0.46915,-0.49901 -0.90911,-0.68226 -1.63803,-0.68226 -1.05499,0 -1.6008,-0.43963 -1.00384,-0.80857 0.196,-0.12115 1.61024,-0.52178 3.14275,-0.89029 3.25986,-0.78388 3.29383,-0.76795 3.57772,1.67801 l 0.17768,1.53088 1.36757,-1.36498 c 1.58674,-1.58369 3.09789,-2.13972 5.2527,-1.93268 1.06804,0.10263 1.51193,0.29088 1.9863,0.84235 0.78874,0.917 0.79899,2.10643 0.0228,2.65007 -0.84497,0.59185 -1.43616,0.50977 -1.9793,-0.2748 -0.98613,-1.42443 -1.37814,-1.69457 -2.45899,-1.69457 -1.48048,0 -3.02224,1.40417 -3.57112,3.25244 -0.46349,1.56073 -0.5717,10.54476 -0.14067,11.67847 0.19069,0.50155 0.56923,0.76118 1.45521,0.99814 0.65862,0.17616 1.19749,0.47419 1.19749,0.66228 0,0.26694 -1.04519,0.342 -4.7625,0.342 -3.71731,0 -4.7625,-0.0751 -4.7625,-0.342 z m 51.59375,-0.0429 c 0,-0.22439 0.35856,-0.45286 0.85989,-0.54792 0.47295,-0.0897 1.09803,-0.33817 1.38907,-0.55222 0.50257,-0.36959 0.53263,-0.73776 0.59819,-7.32342 0.038,-3.81384 -0.0302,-7.08568 -0.15147,-7.27075 -0.12129,-0.18511 -0.73829,-0.42492 -1.37115,-0.53295 -1.67756,-0.28639 -1.61552,-0.75243 0.14893,-1.11872 0.82667,-0.1716 2.16932,-0.54125 2.98368,-0.82145 0.81436,-0.28016 1.63293,-0.45098 1.81904,-0.37957 0.2649,0.10165 0.3384,1.94165 0.3384,8.47254 0,7.91012 0.0267,8.36935 0.5144,8.85709 0.28292,0.28292 0.93777,0.59383 1.45521,0.6909 0.54166,0.10163 0.94081,0.3324 0.94081,0.54393 0,0.29991 -0.87519,0.36743 -4.7625,0.36743 -3.991,0 -4.7625,-0.0623 -4.7625,-0.38489 z m 159.31223,-6.32761 -0.0575,-1.42084 2.28192,-2.74635 c 3.96751,-4.77502 6.79045,-9.42049 8.34128,-13.72656 0.91398,-2.5378 0.90464,-6.47353 -0.0198,-8.334 -0.37124,-0.74711 -1.04831,-1.58171 -1.55617,-1.91823 -1.26336,-0.83709 -3.39302,-0.80952 -5.27881,0.0684 -1.49691,0.69683 -2.2886,0.82275 -2.54678,0.40505 -0.24712,-0.39989 0.42236,-1.26767 1.37298,-1.77959 0.47813,-0.25749 0.86934,-0.57632 0.86934,-0.7085 0,-0.13216 0.99528,-1.80173 2.21176,-3.71015 3.35865,-5.26909 6.6313,-10.9606 8.43939,-14.67699 1.46121,-3.00347 1.62314,-3.50023 1.58607,-4.86627 -0.0228,-0.83674 0.0507,-1.52135 0.16325,-1.52135 0.1125,0 1.65928,-0.83344 3.43728,-1.85209 1.778,-1.01864 3.34301,-1.85208 3.47776,-1.85208 0.13478,0 0.3642,0.22264 0.50983,0.49475 0.21579,0.40324 -0.0177,0.88033 -1.26241,2.57968 -4.16875,5.69127 -7.11184,10.40511 -6.73301,10.78397 0.43489,0.43487 1.08797,-0.0459 3.58965,-2.64237 4.34227,-4.50683 10.4312,-9.43341 14.40725,-11.65696 1.58816,-0.88815 1.79044,-0.93542 3.28092,-0.76679 0.87362,0.0988 1.75897,0.24515 1.96741,0.32514 0.60643,0.23271 0.44016,1.05366 -0.37629,1.85814 -0.68821,0.6781 -0.92919,0.74516 -2.71198,0.75465 -1.61599,0.009 -2.20609,0.1399 -3.3892,0.7541 -7.67652,3.9851 -15.67231,11.86799 -22.19905,21.88556 -0.98417,1.51059 -1.94717,2.68113 -2.37368,2.88528 l -0.71766,0.34356 0.85328,0.18878 c 1.71405,0.37926 3.51354,2.05992 5.14776,4.80788 1.5752,2.64869 1.89823,3.93364 1.51691,6.0338 -0.99867,5.50026 -5.01012,12.19845 -11.21068,18.71927 -1.41836,1.49158 -2.66539,2.71197 -2.7712,2.71197 -0.1058,0 -0.21825,-0.63936 -0.24987,-1.42083 z M 244.00708,202.48889 c -0.44508,-0.17907 -1.11892,-1.50583 -1.11892,-2.20306 0,-0.84055 1.15953,-1.85319 2.12203,-1.85319 1.14536,0 1.74387,0.38261 2.0723,1.32479 0.6437,1.84653 -1.20153,3.48541 -3.07541,2.73146 z m 152.39999,0 c -0.44508,-0.17907 -1.11892,-1.50583 -1.11892,-2.20306 0,-0.84055 1.15953,-1.85319 2.12204,-1.85319 1.14535,0 1.74386,0.38261 2.07229,1.32479 0.64371,1.84653 -1.20152,3.48541 -3.07541,2.73146 z M 2.6096685,197.13147 c -0.55433,-0.45029 -0.62041,-0.71086 -0.58715,-2.3151 0.0691,-3.33262 1.4592,-8.16383 4.78343,-16.62436 4.7238105,-12.02261 13.7041905,-30.40862 22.8094305,-46.69895 1.8767,-3.35763 2.08598,-3.85979 1.67679,-4.02342 -0.63278,-0.25303 -16.54056,-2.4686 -22.2956705,-3.10524 -9.37437999,-1.03702 -12.1483,-1.2056 -19.7114595,-1.19795 -6.98274,0.007 -7.89781,0.0606 -10.17319,0.59512 -5.66381,1.33052 -8.74451,3.83902 -8.74451,7.1203 0,2.64651 2.97776,8.33666 7.56468,14.45516 1.21927,1.62639 2.21866,3.1059 2.22087,3.2878 0.009,0.73891 -0.74029,0.21378 -2.95317,-2.06974 -4.26762,-4.40384 -8.14711,-10.18877 -8.74529,-13.04063 -0.78814,-3.7575 2.06261,-7.64214 7.60145,-10.35829 4.40461,-2.15995 8.04686,-2.67274 17.0631195,-2.40232 3.27284,0.0982 6.54706001,0.23217 7.27604001,0.2978 0.72897999,0.0656 3.11135999,0.24402 5.29416999,0.39644 3.64573,0.25457 18.2193505,1.65653 25.1173405,2.41625 2.69406,0.29672 2.91172,0.28604 3.175,-0.15574 0.15546,-0.26087 0.66961,-0.99019 1.14255,-1.62071 0.47295,-0.63053 0.8599,-1.27262 0.8599,-1.42688 0,-0.3925 -0.79683,-0.34924 -2.11157,0.11463 -1.07021,0.37759 -1.5926,0.34361 -1.5926,-0.10358 0,-0.32221 4.00096,-3.12295 5.30883,-3.71628 2.13565,-0.96885 3.68701,-0.5038 3.68701,1.10526 0,0.40029 -0.7704,1.85043 -1.86693,3.51416 -1.0268,1.55794 -1.82973,2.86981 -1.78429,2.91525 0.21772,0.21773 12.3986,1.41332 12.77934,1.25433 0.14552,-0.0608 0.99858,-1.02468 1.89568,-2.14204 2.715208,-3.38184 4.206916,-5.00336 9.062589,-9.85123 9.345662,-9.33066 18.103373,-15.260569 27.935479,-18.915349 12.472053,-4.63609 24.818403,-3.37023 33.198293,3.40379 4.46799,3.611769 7.41525,9.303359 7.41525,14.319919 v 1.12859 l 4.43177,0.15707 c 7.80036,0.27646 14.98165,1.91989 23.38894,5.35252 11.98173,4.89205 24.40431,14.00361 30.23769,22.17836 3.72676,5.22258 5.33795,12.3711 3.8637,17.14242 -1.57809,5.10741 -5.08537,8.13799 -12.06347,10.42385 -3.54242,1.16041 -6.28844,1.65505 -10.88878,1.96147 -7.12787,0.47474 -14.09902,-0.62775 -14.09902,-2.22978 0,-0.20751 0.40563,-0.6867 0.9014,-1.06484 l 0.90141,-0.68752 0.6365,0.63651 c 1.86703,1.86703 7.85793,2.73624 13.83256,2.00697 7.42267,-0.90602 13.62945,-3.93489 15.8182,-7.71919 1.29098,-2.23205 1.64685,-3.79365 1.61114,-7.06991 -0.0389,-3.56449 -0.62259,-6.09485 -2.06842,-8.96587 -2.09782,-4.16573 -4.42197,-7.09724 -8.51825,-10.74429 -10.9198,-9.72226 -22.87034,-15.98329 -35.68225,-18.69436 -2.87562,-0.6085 -4.68067,-0.81822 -8.06979,-0.93758 l -4.36563,-0.15376 -0.34098,1.82241 c -0.97526,5.21239 -5.64101,11.32554 -11.73868,15.38022 l -1.85501,1.23349 0.17856,1.20331 c 0.31,2.08916 1.66581,5.8977 2.76999,7.78108 1.13756,1.94032 1.27439,2.37466 0.70536,2.23902 -1.23934,-0.29541 -4.06751,-5.03743 -5.06115,-8.48606 -0.24109,-0.83675 -0.47774,-1.52136 -0.5259,-1.52136 -0.0482,0 -1.08151,0.46503 -2.29633,1.0334 -17.346455,8.11578 -33.526503,13.10051 -50.230643,15.475 -6.842154,0.97261 -11.773288,1.31197 -19.362718,1.33255 l -6.79502,0.0184 -0.76592,1.32291 c -0.42126,0.72761 -2.02221,3.46604 -3.55767,6.08542 -4.38223,7.47575 -12.21243,21.28493 -13.42735,23.68021 -0.18452,0.3638 0.83941,-0.52917 2.27541,-1.98438 4.54969,-4.61055 12.30601,-11.33718 16.36556,-14.19296 3.81014,-2.68034 5.76304,-3.64688 9.46743,-4.6857 1.37425,-0.38538 1.60274,-0.38818 2.24546,-0.0274 0.39355,0.22089 0.82452,0.7115 0.95772,1.09025 0.21151,0.60141 0.0413,0.96901 -1.34358,2.90222 -2.02163,2.82205 -5.21499,8.12022 -6.80474,11.28988 -1.34723,2.68613 -2.8025,6.74555 -2.8025,7.81751 0,3.73004 4.36193,3.10769 11.74635,-1.67598 l 2.4448,-1.58374 0.31706,-2.38144 c 1.214445,-9.12148 10.230182,-21.25548 20.062072,-27.00091 2.389984,-1.39662 3.942812,-1.74807 5.271248,-1.19301 0.559475,0.23376 1.242616,0.62884 1.518087,0.87796 0.806696,0.7295 1.537382,2.4011 1.688163,3.86204 0.396523,3.84195 -3.240016,7.05447 -10.105413,8.92711 l -1.853824,0.50567 7.937499,-0.11377 c 6.233469,-0.0893 8.275164,-0.20614 9.510368,-0.54404 1.658295,-0.4536 3.881451,-1.61207 5.162846,-2.6903 0.506386,-0.42609 0.826474,-0.54482 0.946269,-0.35099 0.433266,0.70104 -3.524107,3.67566 -5.810525,4.36754 -1.821206,0.55113 -8.699393,0.89496 -18.062862,0.90289 l -7.724738,0.007 -1.71247,2.57969 c -1.967937,2.96452 -3.321542,5.57392 -4.113168,7.92916 -0.578363,1.72072 -0.689001,2.47722 -0.354573,2.42441 0.601911,-0.095 0.62311,0.0999 0.07437,0.68402 -0.532455,0.56677 -0.59215,0.83024 -0.453448,2.00136 0.201988,1.70548 1.128467,3.39519 2.205622,4.0226 2.462369,1.43425 6.787729,0.57316 13.922287,-2.77159 1.674199,-0.78489 2.401562,-1.00791 2.609414,-0.80005 0.541043,0.54105 -3.97686,3.39952 -7.825028,4.95088 -3.521477,1.41968 -5.096468,1.67402 -6.881505,1.11133 -0.802569,-0.25297 -1.966426,-0.84682 -2.586347,-1.31966 -1.383507,-1.05524 -3.083174,-3.22874 -3.291824,-4.20955 -0.0851,-0.40018 -0.26801,-0.7276 -0.4064,-0.7276 -0.13838,0 -0.92717,0.51795 -1.75286,1.15102 -3.93956,3.02045 -8.79968,5.53823 -11.33999,5.87467 -1.11883,0.14819 -1.59184,0.0753 -2.56287,-0.39473 -1.50709,-0.72959 -2.99669,-2.36448 -3.2151,-3.5287 -0.45052,-2.40149 3.51369,-10.47914 8.19588,-16.70031 1.23146,-1.63624 1.48736,-2.15278 1.41891,-2.86419 -0.0759,-0.78878 -0.17129,-0.8753 -1.04559,-0.9483 -0.76523,-0.0639 -1.37345,0.17354 -2.97247,1.16036 -4.39728,2.71367 -12.3766,9.78117 -18.9519,16.78617 -6.02647,6.4203 -6.32117,6.69647 -6.7584,6.3336 -0.21195,-0.17594 -0.38535,-0.66349 -0.38535,-1.08349 0,-1.42213 6.86969,-14.66797 15.25047,-29.40529 2.38078,-4.18651 4.32869,-7.65375 4.32869,-7.70497 0,-0.0512 -0.58096,-0.17019 -1.29103,-0.26439 -0.71007,-0.0942 -1.69052,-0.44047 -2.17879,-0.76951 -1.09314,-0.73667 -2.07626,-2.41289 -2.08207,-3.54996 -0.0119,-2.31564 5.47572,-5.95328 11.35441,-7.5267 l 2.17239,-0.58144 1.23807,-1.82226 c 0.68094,-1.00224 2.22909,-3.19454 3.44035,-4.87177 1.21126,-1.67723 2.16376,-3.08617 2.11667,-3.13097 -0.0471,-0.0448 -2.46687,-0.45949 -5.37729,-0.92152 -2.91042,-0.46204 -5.54928,-0.90088 -5.86414,-0.9752 -0.5018,-0.11846 -0.89757,0.41476 -3.2061,4.31958 -10.60526,17.93857 -21.94146,40.31369 -26.2512105,51.81399 -2.18829,5.83936 -2.45984,7.38614 -1.72308,9.81483 0.55396,1.82607 0.4998,2.37233 -0.2974,2.99939 -0.85497,0.67252 -0.94097,0.67458 -1.72094,0.041 z M 67.590264,165.72813 c 1.805274,-0.46456 5.388549,-2.07458 6.894015,-3.09757 3.694001,-2.51014 5.740871,-6.56855 3.828939,-7.59179 -2.072828,-1.10934 -6.136584,1.40018 -12.563596,7.75849 l -3.704167,3.66456 1.972935,-0.16111 c 1.085111,-0.0886 2.692455,-0.34626 3.571874,-0.57258 z M 52.652749,150.92924 c 14.989022,-1.30965 29.079915,-4.82492 43.12708,-10.75897 5.569021,-2.35256 16.795481,-8.34502 17.372871,-9.27329 0.11288,-0.18148 0.17268,-1.10387 0.13288,-2.04975 -0.0924,-2.19515 0.56241,-5.58083 1.32159,-6.83372 2.07694,-3.42757 5.91249,-6.06692 10.78582,-7.42202 1.08031,-0.3004 2.06075,-0.69832 2.17876,-0.88428 0.30549,-0.48141 0.26129,-4.61211 -0.0645,-6.02665 -1.51962,-6.59813 -9.85982,-12.768219 -19.10159,-14.131369 -7.25198,-1.06966 -13.058629,-0.0718 -20.758252,3.56738 -8.618426,4.073409 -16.862903,10.166559 -25.138802,18.579039 l -3.770172,3.83239 0.850556,1.81534 c 1.21195,2.58666 1.317871,4.62042 0.328559,6.30855 -0.401761,0.68555 -1.336214,1.72527 -2.076563,2.31048 l -1.346086,1.06402 -2.251814,-0.17008 c -1.238497,-0.0935 -2.735017,-0.23677 -3.325607,-0.31827 l -1.0738,-0.1482 -2.79653,3.92505 c -3.18888,4.47572 -5.98941,8.72878 -8.82079,13.39575 -1.87213,3.08586 -1.93312,3.23694 -1.37316,3.40136 1.13609,0.33358 11.22568,0.21687 15.79954,-0.18276 z m -18.36121,-1.51588 c 0.45159,-0.76111 1.79104,-2.89198 2.97656,-4.73525 1.18551,-1.84328 2.15548,-3.41444 2.15548,-3.49148 0,-0.21963 -2.63872,0.74383 -4.23928,1.54787 -2.00365,1.00653 -4.46285,2.78913 -5.62993,4.08095 -1.06829,1.18246 -1.32239,2.58383 -0.5802,3.1998 0.52205,0.43325 1.82522,0.7329 3.30566,0.76009 1.16212,0.0214 1.21029,-0.0113 2.01171,-1.36198 z m 84.275881,-22.38963 c 2.65789,-2.2185 5.02527,-4.8101 6.51801,-7.13534 1.07034,-1.66727 2.06252,-3.94665 1.82243,-4.18674 -0.3037,-0.3037 -3.17602,0.47605 -5.07281,1.37712 -3.00956,1.42969 -4.76518,3.5503 -5.78509,6.98783 -0.44475,1.49898 -0.58904,5.04521 -0.20528,5.04521 0.1216,0 1.34684,-0.93964 2.72274,-2.08808 z m -60.558501,-1.563 c 0.54183,-0.54183 0.556919,-0.67113 0.272262,-2.33294 -0.165749,-0.96763 -0.404273,-1.86224 -0.530059,-1.98802 -0.241593,-0.2416 -4.338923,4.52749 -4.151,4.83156 0.05961,0.0964 0.946902,0.15007 1.971776,0.11918 1.512183,-0.0456 1.971521,-0.16428 2.437021,-0.62978 z m 67.158531,68.69489 c -2.59876,-0.74633 -6.09442,-4.56993 -5.09328,-5.57106 0.20275,-0.20275 0.71652,0.11062 1.79025,1.09193 0.82824,0.75697 2.11056,1.68273 2.8496,2.05722 1.21288,0.61462 1.55573,0.66767 3.5215,0.54504 2.72913,-0.17026 4.06422,-0.78671 6.38331,-2.9473 7.73156,-7.20312 22.08294,-31.98766 28.7417,-49.63631 0.74121,-1.96453 1.46572,-3.60682 1.61004,-3.64954 0.14431,-0.0427 0.36259,0.53433 0.48506,1.28232 0.24367,1.48812 -0.1145,2.73967 -2.59843,9.07968 -5.93643,15.15224 -13.60673,29.63793 -19.95472,37.68536 -2.59852,3.29417 -6.66489,7.08552 -9.07075,8.45728 -2.8714,1.63719 -6.32527,2.27713 -8.66428,1.60538 z m 132.64887,-2.57505 c -2.42229,-1.0994 -2.79374,-2.89111 -1.43817,-6.93719 1.3277,-3.96299 4.43521,-9.14337 8.99546,-14.99606 1.16644,-1.49698 2.12079,-2.76553 2.12079,-2.81895 0,-0.0534 -0.53953,-0.4355 -1.19898,-0.84905 -1.33988,-0.84023 -1.75284,-1.74991 -1.09366,-2.40909 0.31245,-0.31244 1.17332,-0.46096 3.32079,-0.57292 2.46332,-0.12841 2.99162,-0.23595 3.51512,-0.71549 1.93646,-1.77383 3.90141,-1.94244 6.54487,-0.56163 l 1.81215,0.94659 5.96226,0.19215 c 3.27924,0.10568 6.12145,0.29488 6.316,0.42043 0.58848,0.37976 -0.26951,0.74832 -1.76292,0.7573 -0.72761,0.004 -1.62057,0.15848 -1.98438,0.34247 -0.59557,0.3012 -0.66537,0.50507 -0.70077,2.04663 -0.10713,4.665 -4.07019,10.15005 -12.04659,16.67306 -5.01922,4.10466 -9.55328,6.81257 -13.44639,8.03074 -3.02667,0.94707 -3.68876,1.00782 -4.91558,0.45101 z m 6.06369,-1.8782 c 4.11782,-1.71487 9.33659,-5.65042 14.38632,-10.8489 4.34457,-4.47251 7.21252,-9.79069 6.59871,-12.23626 -0.083,-0.33076 -0.54279,-0.83828 -1.02171,-1.12787 -0.74094,-0.44798 -1.34427,-0.52649 -4.0458,-0.52649 -4.53753,0 -5.74551,0.41767 -8.29022,2.86652 -4.3244,4.16153 -8.55204,9.9799 -11.37443,15.65431 -2.3934,4.8119 -2.66499,5.86502 -1.79925,6.97683 0.46442,0.59647 3.18738,0.22428 5.54638,-0.75814 z m 116.7874,1.99157 c -1.9743,-0.6836 -2.72778,-1.89603 -2.45658,-3.95277 0.57827,-4.38534 3.88162,-10.48258 9.9251,-18.31951 l 1.97588,-2.56228 -0.76173,-0.55139 c -1.96821,-1.42471 -2.13257,-1.63622 -1.8143,-2.33475 0.35901,-0.78796 1.20345,-0.99477 4.06188,-0.99477 1.99205,0 2.12042,-0.0388 3.67165,-1.10921 2.14953,-1.4833 3.41463,-1.51638 5.89298,-0.15411 l 1.7376,0.95511 6.12397,0.19227 c 3.43617,0.10788 6.19342,0.30463 6.28219,0.44827 0.25413,0.41118 -0.47919,0.71667 -1.76165,0.73389 -0.65485,0.009 -1.54083,0.1654 -1.96887,0.34802 -0.74941,0.31973 -0.77947,0.4002 -0.81127,2.17087 -0.0792,4.40981 -3.80976,9.71997 -11.10988,15.8139 -5.44266,4.54338 -10.1913,7.44601 -14.28811,8.73366 -2.8685,0.9016 -3.5383,0.98465 -4.69886,0.5828 z m 4.05553,-1.35721 c 5.50288,-1.6197 14.4331,-8.67653 19.47397,-15.38872 2.27308,-3.02675 3.8886,-7.12822 3.30888,-8.40057 -0.56076,-1.23074 -1.72337,-1.58459 -5.20618,-1.58459 -5.35215,0 -6.5812,0.66289 -11.20984,6.04591 -3.91957,4.55843 -6.94452,9.24142 -9.3285,14.44157 -1.34212,2.92761 -1.56911,4.19851 -0.87402,4.89363 0.53284,0.53281 2.01036,0.53004 3.83569,-0.007 z m -52.53791,0.40389 c -4.65982,-0.63849 -9.42785,-2.60974 -11.21029,-4.63471 -2.54794,-2.89462 -2.43144,-7.1102 0.27286,-9.87533 4.25903,-4.35478 19.22571,-9.00057 33.35491,-10.35362 2.33704,-0.22379 3.31454,-0.41299 3.19447,-0.61831 -0.0951,-0.16269 -1.0274,-1.4269 -2.07168,-2.80934 -3.9959,-5.28976 -12.67336,-17.08975 -13.77093,-18.72629 -3.29711,-4.91617 -4.14922,-10.10525 -2.27857,-13.87563 1.54673,-3.11746 4.94075,-5.81844 10.70909,-8.52232 7.68594,-3.60275 15.20558,-5.18813 24.66263,-5.19966 8.69146,-0.0106 12.18602,0.94902 15.47813,4.25034 2.45631,2.46318 3.04271,4.07032 3.04271,8.33918 0,2.89506 -0.0629,3.30914 -0.71298,4.69636 -0.78689,1.67913 -1.44608,2.06401 -1.16988,0.68307 1.25913,-6.29564 -0.94136,-11.71355 -5.74929,-14.15555 -5.21004,-2.64623 -17.46736,-2.8713 -26.63139,-0.48901 -4.35256,1.1315 -7.96227,2.75258 -11.76827,5.28499 -5.66105,3.76675 -7.51435,7.92415 -5.86783,13.16302 1.04627,3.32904 2.64142,5.84391 8.02069,12.64525 2.7047,3.41974 6.39667,8.15247 8.20433,10.51718 l 3.28668,4.29948 h 4.75075 c 2.92926,0 4.75073,0.0995 4.75073,0.25953 0,0.37643 -0.77084,0.48255 -4.7439,0.65313 -1.95429,0.0839 -3.58415,0.18346 -3.62191,0.22122 -0.0377,0.0377 0.27707,0.78033 0.69959,1.65018 2.78587,5.73542 1.78376,12.29547 -2.46573,16.14103 -2.7609,2.49846 -7.81275,4.66574 -13.8752,5.95252 -2.99662,0.63603 -11.39259,0.92768 -14.48972,0.50329 z m 9.12812,-1.70791 c 4.00016,-0.3156 9.9227,-2.15652 13.68944,-4.25516 2.47769,-1.38047 4.66643,-3.53994 5.68661,-5.61055 0.7485,-1.51921 0.87563,-2.07544 0.94702,-4.14303 0.0937,-2.71475 -0.40958,-4.58353 -1.83097,-6.79862 -0.96258,-1.50003 -0.7474,-1.47085 -5.59387,-0.75864 -10.96659,1.61157 -19.2319,3.84185 -25.17905,6.79415 -6.40138,3.17781 -9.01975,6.09862 -8.12982,9.06891 0.34239,1.14282 2.33994,3.27748 3.71771,3.97285 3.37955,1.70569 9.26714,2.3159 16.69293,1.73009 z m 96.53169,1.10863 c -2.9197,-1.08805 -5.19491,-3.35838 -5.94241,-5.92968 -0.3824,-1.31546 -0.38232,-1.65852 0,-3.9283 0.55338,-3.27533 1.22492,-5.21274 2.97188,-8.57364 2.14815,-4.13279 4.59542,-7.40178 8.43455,-11.26661 3.80142,-3.82687 6.14293,-5.67887 9.12812,-7.21978 2.44502,-1.26208 3.18585,-1.44608 4.45098,-1.10541 2.82131,0.7597 4.37282,4.89386 2.94418,7.84504 -1.15163,2.37895 -4.90927,4.76936 -9.30976,5.92238 l -1.92186,0.50359 6.08542,0.008 c 8.28783,0.0106 10.84432,-0.25882 13.2361,-1.39468 1.02994,-0.48912 2.31693,-1.27941 2.85996,-1.7562 0.54303,-0.47679 1.05373,-0.80048 1.1349,-0.71932 0.60148,0.60147 -1.91085,2.86105 -4.48524,4.034 -2.24676,1.02368 -4.28363,1.19888 -15.87918,1.36594 l -11.07093,0.15952 -1.2963,1.74575 c -1.65129,2.2239 -4.62333,8.19718 -4.98896,10.02702 -0.35041,1.75381 -0.35782,4.12853 -0.0167,5.35654 0.35915,1.2928 1.73008,2.53592 3.23993,2.93782 2.24068,0.59645 6.91203,-0.58187 12.34411,-3.11374 2.73555,-1.27506 2.9379,-1.32927 2.9379,-0.78735 0,0.20426 -0.92273,0.96231 -2.05052,1.68455 -5.40578,3.46186 -10.40063,5.10172 -12.80736,4.20484 z m 7.757,-24.09608 c 5.21579,-1.00149 10.35272,-4.02027 12.13805,-7.13306 1.47537,-2.57235 0.84958,-4.33135 -1.44878,-4.07229 -2.22893,0.25123 -7.3837,4.05072 -12.44642,9.17399 l -2.37572,2.40416 h 1.09569 c 0.60262,0 1.96935,-0.16775 3.03718,-0.3728 z"
       id="path683" />
  </g>
</svg>
