<?xml version="1.0" standalone="no"?>
<!DOCTYPE svg PUBLIC "-//W3C//DTD SVG 20010904//EN"
 "http://www.w3.org/TR/2001/REC-SVG-20010904/DTD/svg10.dtd">
<svg version="1.0" xmlns="http://www.w3.org/2000/svg"
 width="700.000000pt" height="700.000000pt" viewBox="0 0 700.000000 700.000000"
 preserveAspectRatio="xMidYMid meet">
<metadata>
Created by potrace 1.14, written by Peter Selinger 2001-2017
</metadata>
<g transform="translate(0.000000,700.000000) scale(0.100000,-0.100000)"
fill="#000000" stroke="none">
<path d="M1113 5685 c-44 -19 -53 -42 -53 -134 l0 -81 -123 0 c-185 0 -287
-37 -389 -141 -64 -66 -111 -155 -127 -243 -8 -41 -11 -566 -11 -1705 0 -1417
2 -1655 15 -1709 38 -160 148 -282 311 -344 l59 -23 2705 0 2705 0 59 23 c163
62 273 184 311 344 13 54 15 292 15 1709 0 1139 -3 1664 -11 1705 -30 166
-152 304 -324 368 -21 8 -590 12 -1990 16 l-1960 5 -5 85 c-3 47 -9 91 -14 99
-25 39 -56 41 -608 41 -430 -1 -539 -3 -565 -15z m4908 -561 c67 -20 148 -97
167 -160 31 -103 9 -197 -63 -271 -49 -50 -120 -83 -180 -83 -86 0 -194 71
-235 154 -27 58 -28 164 0 221 29 60 90 115 152 136 66 23 90 23 159 3z
m-2290 -350 c197 -33 422 -129 583 -247 287 -212 473 -508 552 -877 28 -127
25 -410 -4 -542 -65 -294 -182 -510 -391 -718 -210 -209 -448 -335 -731 -386
-127 -23 -353 -23 -479 0 -569 104 -1012 546 -1128 1123 -24 123 -24 405 0
523 45 214 139 426 263 590 213 282 520 470 874 535 106 19 345 19 461 -1z"/>
<path d="M3365 4519 c-170 -23 -343 -86 -477 -175 -97 -64 -244 -208 -308
-300 -363 -525 -230 -1248 295 -1601 502 -339 1177 -217 1536 277 239 329 280
785 105 1156 -58 121 -113 201 -209 301 -213 221 -464 335 -772 348 -55 2
-131 0 -170 -6z"/>
</g>
</svg>
